<svg width="154" height="78" viewBox="0 0 154 78" fill="none" xmlns="http://www.w3.org/2000/svg">
<mask id="path-1-outside-1_1222_20858" maskUnits="userSpaceOnUse" x="-8.22474" y="-16.2878" width="168.183" height="125.756" fill="black">
<rect fill="white" x="-8.22474" y="-16.2878" width="168.183" height="125.756"/>
<path d="M72.471 1.948C85.2661 -1.48028 98.4126 5.94372 102.137 18.5776C104.195 17.2341 106.497 16.1883 108.999 15.5177C120.966 12.3111 133.246 18.8163 137.474 30.2019C144.442 32.804 150.09 38.6223 152.162 46.3541C155.565 59.0563 148.027 72.1122 135.325 75.516C125.886 78.0453 116.251 74.5319 110.527 67.3472C107.456 71.2734 103.131 74.2718 97.9457 75.6613C87.9073 78.351 77.6487 74.2068 72.1072 66.0809C69.2899 69.3449 65.4986 71.829 61.0199 73.0291C53.0301 75.1698 44.8901 72.6846 39.445 67.2148C36.7624 69.919 33.351 71.9717 29.4065 73.0286C17.5205 76.2132 5.30386 69.1599 2.11882 57.2741C-1.06604 45.388 5.98713 33.1705 17.8731 29.9855C19.6807 29.5011 21.4964 29.2543 23.2864 29.2245C25.1706 21.6006 31.0363 15.207 39.1584 13.0306C45.2918 11.3871 51.5134 12.4698 56.5367 15.5361C59.4295 9.07529 65.1003 3.92296 72.471 1.948Z"/>
</mask>
<path d="M72.471 1.948C85.2661 -1.48028 98.4126 5.94372 102.137 18.5776C104.195 17.2341 106.497 16.1883 108.999 15.5177C120.966 12.3111 133.246 18.8163 137.474 30.2019C144.442 32.804 150.09 38.6223 152.162 46.3541C155.565 59.0563 148.027 72.1122 135.325 75.516C125.886 78.0453 116.251 74.5319 110.527 67.3472C107.456 71.2734 103.131 74.2718 97.9457 75.6613C87.9073 78.351 77.6487 74.2068 72.1072 66.0809C69.2899 69.3449 65.4986 71.829 61.0199 73.0291C53.0301 75.1698 44.8901 72.6846 39.445 67.2148C36.7624 69.919 33.351 71.9717 29.4065 73.0286C17.5205 76.2132 5.30386 69.1599 2.11882 57.2741C-1.06604 45.388 5.98713 33.1705 17.8731 29.9855C19.6807 29.5011 21.4964 29.2543 23.2864 29.2245C25.1706 21.6006 31.0363 15.207 39.1584 13.0306C45.2918 11.3871 51.5134 12.4698 56.5367 15.5361C59.4295 9.07529 65.1003 3.92296 72.471 1.948Z" fill="white"/>
<path d="M72.471 1.948L72.2122 0.982073L72.2122 0.982077L72.471 1.948ZM102.137 18.5776L101.178 18.8604L101.558 20.15L102.684 19.4149L102.137 18.5776ZM108.999 15.5177L108.74 14.5518L108.74 14.5518L108.999 15.5177ZM137.474 30.2019L136.537 30.55L136.696 30.9787L137.124 31.1387L137.474 30.2019ZM152.162 46.3541L153.128 46.0953L153.128 46.0953L152.162 46.3541ZM135.325 75.516L135.584 76.4819L135.584 76.4819L135.325 75.516ZM110.527 67.3472L111.309 66.7241L110.52 65.7334L109.74 66.7311L110.527 67.3472ZM97.9457 75.6613L98.2045 76.6272L98.2046 76.6272L97.9457 75.6613ZM72.1072 66.0809L72.9334 65.5175L72.2003 64.4426L71.3502 65.4275L72.1072 66.0809ZM61.0199 73.0291L61.2787 73.995L61.2787 73.995L61.0199 73.0291ZM39.445 67.2148L40.1537 66.5093L39.4437 65.7961L38.735 66.5105L39.445 67.2148ZM29.4065 73.0286L29.6653 73.9946L29.6653 73.9946L29.4065 73.0286ZM2.11882 57.2741L1.1529 57.5329L1.1529 57.5329L2.11882 57.2741ZM17.8731 29.9855L17.6143 29.0196L17.6143 29.0196L17.8731 29.9855ZM23.2864 29.2245L23.303 30.2244L24.0725 30.2116L24.2572 29.4645L23.2864 29.2245ZM39.1584 13.0306L38.8995 12.0647L38.8995 12.0647L39.1584 13.0306ZM56.5367 15.5361L56.0157 16.3896L56.9852 16.9814L57.4494 15.9447L56.5367 15.5361ZM72.471 1.948L72.7298 2.91393C84.9995 -0.373577 97.6065 6.74564 101.178 18.8604L102.137 18.5776L103.097 18.2948C99.2187 5.1418 85.5327 -2.58698 72.2122 0.982073L72.471 1.948ZM102.137 18.5776L102.684 19.4149C104.654 18.1284 106.859 17.1265 109.258 16.4836L108.999 15.5177L108.74 14.5518C106.134 15.2502 103.736 16.3398 101.591 17.7403L102.137 18.5776ZM108.999 15.5177L109.258 16.4836C120.722 13.4119 132.487 19.6436 136.537 30.55L137.474 30.2019L138.412 29.8538C134.006 17.9891 121.211 11.2104 108.74 14.5518L108.999 15.5177ZM137.474 30.2019L137.124 31.1387C143.802 33.6326 149.212 39.2067 151.196 46.6129L152.162 46.3541L153.128 46.0953C150.969 38.038 145.082 31.9755 137.824 29.2651L137.474 30.2019ZM152.162 46.3541L151.196 46.6129C154.457 58.7816 147.235 71.2892 135.067 74.55L135.325 75.516L135.584 76.4819C148.82 72.9352 156.674 59.3309 153.128 46.0953L152.162 46.3541ZM135.325 75.516L135.067 74.55C126.025 76.9727 116.794 73.6089 111.309 66.7241L110.527 67.3472L109.745 67.9703C115.708 75.455 125.747 79.1178 135.584 76.4819L135.325 75.516ZM110.527 67.3472L109.74 66.7311C106.797 70.4923 102.656 73.3639 97.6869 74.6954L97.9457 75.6613L98.2046 76.6272C103.607 75.1797 108.115 72.0545 111.315 67.9634L110.527 67.3472ZM97.9457 75.6613L97.6869 74.6954C88.0716 77.2717 78.243 73.3033 72.9334 65.5175L72.1072 66.0809L71.281 66.6444C77.0545 75.1103 87.743 79.4303 98.2045 76.6272L97.9457 75.6613ZM72.1072 66.0809L71.3502 65.4275C68.6595 68.5448 65.0398 70.9167 60.7611 72.0632L61.0199 73.0291L61.2787 73.995C65.9574 72.7414 69.9203 70.145 72.8642 66.7344L72.1072 66.0809ZM61.0199 73.0291L60.7611 72.0632C53.1311 74.1075 45.3565 71.7357 40.1537 66.5093L39.445 67.2148L38.7363 67.9203C44.4236 73.6335 52.9291 76.2322 61.2787 73.995L61.0199 73.0291ZM39.445 67.2148L38.735 66.5105C36.1735 69.0927 32.9165 71.0528 29.1477 72.0627L29.4065 73.0286L29.6653 73.9946C33.7854 72.8906 37.3513 70.7453 40.1549 67.9191L39.445 67.2148ZM29.4065 73.0286L29.1477 72.0627C17.7952 75.1044 6.12683 68.3676 3.08474 57.0153L2.11882 57.2741L1.1529 57.5329C4.48088 69.9522 17.2459 77.3221 29.6653 73.9946L29.4065 73.0286ZM2.11882 57.2741L3.08475 57.0153C0.0428176 45.6626 6.77946 33.9935 18.1319 30.9514L17.8731 29.9855L17.6143 29.0196C5.19481 32.3476 -2.1749 45.1134 1.1529 57.5329L2.11882 57.2741ZM17.8731 29.9855L18.1319 30.9514C19.8596 30.4885 21.5939 30.2528 23.303 30.2244L23.2864 29.2245L23.2698 28.2247C21.3988 28.2558 19.5019 28.5138 17.6143 29.0196L17.8731 29.9855ZM23.2864 29.2245L24.2572 29.4645C26.0576 22.1799 31.6609 16.0749 39.4172 13.9965L39.1584 13.0306L38.8995 12.0647C30.4117 14.3391 24.2837 21.0214 22.3156 28.9846L23.2864 29.2245ZM39.1584 13.0306L39.4172 13.9965C45.2755 12.4268 51.2163 13.4601 56.0157 16.3896L56.5367 15.5361L57.0577 14.6825C51.8105 11.4796 45.3081 10.3475 38.8995 12.0647L39.1584 13.0306ZM56.5367 15.5361L57.4494 15.9447C60.2245 9.7468 65.6622 4.80769 72.7298 2.91393L72.471 1.948L72.2122 0.982077C64.5385 3.03822 58.6345 8.40379 55.624 15.1274L56.5367 15.5361Z" fill="#171717" mask="url(#path-1-outside-1_1222_20858)"/>
</svg>
