<svg width="54" height="33" viewBox="0 0 54 33" fill="none" xmlns="http://www.w3.org/2000/svg">
<mask id="path-1-outside-1_1222_20846" maskUnits="userSpaceOnUse" x="0" y="0" width="54" height="33" fill="black">
<rect fill="white" width="54" height="33"/>
<path d="M33.1328 1C29.1777 1.00007 25.7336 3.17935 23.9297 6.40137C22.7289 5.92586 21.4208 5.66211 20.0508 5.66211C15.8788 5.66212 12.2737 8.08581 10.5645 11.6016C10.3595 11.5875 10.1528 11.5781 9.94434 11.5781C5.00562 11.5781 1.00195 15.5818 1.00195 20.5205C1.00197 25.4592 5.00563 29.4629 9.94434 29.4629C12.7074 29.4629 15.1771 28.2091 16.8174 26.2402C17.4768 26.4525 18.1641 26.6018 18.873 26.6807C20.7877 29.3342 23.9036 31.0635 27.4258 31.0635C30.7926 31.0635 33.7885 29.4833 35.7188 27.0264C37.546 28.5469 39.8941 29.4629 42.457 29.4629C48.2797 29.4629 53 24.7426 53 18.9199C53 13.3478 48.6771 8.78761 43.2021 8.40527C41.8666 4.11473 37.8629 1 33.1328 1Z"/>
</mask>
<path d="M33.1328 1C29.1777 1.00007 25.7336 3.17935 23.9297 6.40137C22.7289 5.92586 21.4208 5.66211 20.0508 5.66211C15.8788 5.66212 12.2737 8.08581 10.5645 11.6016C10.3595 11.5875 10.1528 11.5781 9.94434 11.5781C5.00562 11.5781 1.00195 15.5818 1.00195 20.5205C1.00197 25.4592 5.00563 29.4629 9.94434 29.4629C12.7074 29.4629 15.1771 28.2091 16.8174 26.2402C17.4768 26.4525 18.1641 26.6018 18.873 26.6807C20.7877 29.3342 23.9036 31.0635 27.4258 31.0635C30.7926 31.0635 33.7885 29.4833 35.7188 27.0264C37.546 28.5469 39.8941 29.4629 42.457 29.4629C48.2797 29.4629 53 24.7426 53 18.9199C53 13.3478 48.6771 8.78761 43.2021 8.40527C41.8666 4.11473 37.8629 1 33.1328 1Z" fill="white"/>
<path d="M33.1328 1L33.1328 0H33.1328V1ZM23.9297 6.40137L24.8022 6.88988L24.3749 7.65321L23.5615 7.33113L23.9297 6.40137ZM20.0508 5.66211L20.0508 4.66211H20.0508V5.66211ZM10.5645 11.6016L11.4638 12.0388L11.1689 12.6453L10.4961 12.5992L10.5645 11.6016ZM9.94434 11.5781L9.94433 10.5781H9.94434V11.5781ZM1.00195 20.5205L0.00195312 20.5205V20.5205H1.00195ZM9.94434 29.4629V30.4629H9.94433L9.94434 29.4629ZM16.8174 26.2402L16.0491 25.6001L16.4812 25.0814L17.1239 25.2884L16.8174 26.2402ZM18.873 26.6807L18.9835 25.6868L19.4244 25.7358L19.684 26.0955L18.873 26.6807ZM27.4258 31.0635V32.0635H27.4258L27.4258 31.0635ZM35.7188 27.0264L34.9324 26.4086L35.5678 25.5998L36.3584 26.2577L35.7188 27.0264ZM42.457 29.4629V30.4629H42.457L42.457 29.4629ZM53 18.9199H54V18.9199L53 18.9199ZM43.2021 8.40527L43.1325 9.40284L42.4505 9.35522L42.2473 8.70249L43.2021 8.40527ZM33.1328 1L33.1328 2C29.5546 2.00006 26.4367 3.97045 24.8022 6.88988L23.9297 6.40137L23.0571 5.91285C25.0304 2.38826 28.8007 7.62939e-05 33.1328 0L33.1328 1ZM23.9297 6.40137L23.5615 7.33113C22.4747 6.90077 21.2914 6.66211 20.0508 6.66211V5.66211V4.66211C21.5502 4.66211 22.983 4.95094 24.2979 5.47161L23.9297 6.40137ZM20.0508 5.66211L20.0508 6.66211C16.2762 6.66212 13.0122 8.85398 11.4638 12.0388L10.5645 11.6016L9.66511 11.1643C11.5353 7.31763 15.4814 4.66212 20.0508 4.66211L20.0508 5.66211ZM10.5645 11.6016L10.4961 12.5992C10.306 12.5862 10.1233 12.5781 9.94434 12.5781V11.5781V10.5781C10.1824 10.5781 10.413 10.5888 10.6328 10.6039L10.5645 11.6016ZM9.94434 11.5781L9.94434 12.5781C5.55791 12.5781 2.00195 16.1341 2.00195 20.5205H1.00195H0.00195312C0.00195312 15.0295 4.45334 10.5781 9.94433 10.5781L9.94434 11.5781ZM1.00195 20.5205L2.00195 20.5205C2.00197 24.9069 5.55792 28.4629 9.94434 28.4629L9.94434 29.4629L9.94433 30.4629C4.45335 30.4629 0.0019722 26.0115 0.00195312 20.5205L1.00195 20.5205ZM9.94434 29.4629V28.4629C12.3978 28.4629 14.5904 27.351 16.0491 25.6001L16.8174 26.2402L17.5857 26.8803C15.7637 29.0673 13.0169 30.4629 9.94434 30.4629V29.4629ZM16.8174 26.2402L17.1239 25.2884C17.7204 25.4804 18.342 25.6155 18.9835 25.6868L18.873 26.6807L18.7626 27.6745C17.9861 27.5882 17.2332 27.4247 16.5109 27.1921L16.8174 26.2402ZM18.873 26.6807L19.684 26.0955C21.4191 28.5004 24.2392 30.0635 27.4258 30.0635L27.4258 31.0635L27.4258 32.0635C23.5681 32.0635 20.1562 30.1681 18.0621 27.2658L18.873 26.6807ZM27.4258 31.0635V30.0635C30.4721 30.0635 33.1832 28.6352 34.9324 26.4086L35.7188 27.0264L36.5051 27.6441C34.3939 30.3315 31.1131 32.0635 27.4258 32.0635V31.0635ZM35.7188 27.0264L36.3584 26.2577C38.0131 27.6346 40.1369 28.4629 42.457 28.4629L42.457 29.4629L42.457 30.4629C39.6514 30.4629 37.0789 29.4591 35.0791 27.795L35.7188 27.0264ZM42.457 29.4629V28.4629C47.7274 28.4629 52 24.1903 52 18.9199L53 18.9199L54 18.9199C54 25.2949 48.832 30.4629 42.457 30.4629V29.4629ZM53 18.9199H52C52 13.877 48.0874 9.74887 43.1325 9.40284L43.2021 8.40527L43.2718 7.4077C49.2667 7.82635 54 12.8185 54 18.9199H53ZM43.2021 8.40527L42.2473 8.70249C41.0382 4.81819 37.4129 2 33.1328 2V1V0C38.3129 0 42.695 3.41127 44.157 8.10806L43.2021 8.40527Z" fill="#171717" mask="url(#path-1-outside-1_1222_20846)"/>
</svg>
