<svg width="117" height="79" viewBox="0 0 117 79" fill="none" xmlns="http://www.w3.org/2000/svg">
<mask id="path-1-outside-1_1222_20852" maskUnits="userSpaceOnUse" x="-8.22474" y="-6.32478" width="130.821" height="106.779" fill="black">
<rect fill="white" x="-8.22474" y="-6.32478" width="130.821" height="106.779"/>
<path d="M72.471 2.59351C85.4657 -0.888259 98.823 6.82349 102.305 19.8182C103.413 23.9537 103.385 28.1256 102.416 32.0045C108.3 34.944 112.947 40.2918 114.783 47.1447C118.187 59.847 110.648 72.9032 97.9457 76.3068C87.9073 78.9965 77.6487 74.8524 72.1072 66.7265C69.2899 69.9904 65.4986 72.4745 61.0199 73.6746C53.0301 75.8154 44.8901 73.3301 39.445 67.8603C36.7624 70.5645 33.351 72.6172 29.4065 73.6741C17.5205 76.8588 5.30386 69.8054 2.11882 57.9196C-1.06604 46.0335 5.98713 33.816 17.8731 30.631C19.6807 30.1467 21.4964 29.8998 23.2864 29.87C25.1706 22.2462 31.0363 15.8525 39.1584 13.6761C45.2918 12.0326 51.5134 13.1154 56.5367 16.1816C59.4295 9.7208 65.1003 4.56847 72.471 2.59351Z"/>
</mask>
<path d="M72.471 2.59351C85.4657 -0.888259 98.823 6.82349 102.305 19.8182C103.413 23.9537 103.385 28.1256 102.416 32.0045C108.3 34.944 112.947 40.2918 114.783 47.1447C118.187 59.847 110.648 72.9032 97.9457 76.3068C87.9073 78.9965 77.6487 74.8524 72.1072 66.7265C69.2899 69.9904 65.4986 72.4745 61.0199 73.6746C53.0301 75.8154 44.8901 73.3301 39.445 67.8603C36.7624 70.5645 33.351 72.6172 29.4065 73.6741C17.5205 76.8588 5.30386 69.8054 2.11882 57.9196C-1.06604 46.0335 5.98713 33.816 17.8731 30.631C19.6807 30.1467 21.4964 29.8998 23.2864 29.87C25.1706 22.2462 31.0363 15.8525 39.1584 13.6761C45.2918 12.0326 51.5134 13.1154 56.5367 16.1816C59.4295 9.7208 65.1003 4.56847 72.471 2.59351Z" fill="white"/>
<path d="M72.471 2.59351L72.2122 1.62758L72.2122 1.62758L72.471 2.59351ZM102.305 19.8182L103.271 19.5594L103.271 19.5594L102.305 19.8182ZM102.416 32.0045L101.446 31.7622L101.251 32.5406L101.969 32.8991L102.416 32.0045ZM114.783 47.1447L115.749 46.8859L114.783 47.1447ZM97.9457 76.3068L98.2045 77.2727L98.2046 77.2727L97.9457 76.3068ZM72.1072 66.7265L72.9334 66.163L72.2003 65.0881L71.3502 66.073L72.1072 66.7265ZM61.0199 73.6746L61.2787 74.6405L61.2787 74.6405L61.0199 73.6746ZM39.445 67.8603L40.1537 67.1548L39.4437 66.4416L38.735 67.156L39.445 67.8603ZM29.4065 73.6741L29.6653 74.6401L29.6653 74.6401L29.4065 73.6741ZM2.11882 57.9196L1.1529 58.1784L1.1529 58.1784L2.11882 57.9196ZM17.8731 30.631L17.6143 29.6651L17.6143 29.6651L17.8731 30.631ZM23.2864 29.87L23.303 30.8699L24.0725 30.8571L24.2572 30.11L23.2864 29.87ZM39.1584 13.6761L38.8995 12.7102L38.8995 12.7102L39.1584 13.6761ZM56.5367 16.1816L56.0157 17.0351L56.9852 17.6269L57.4494 16.5902L56.5367 16.1816ZM72.471 2.59351L72.7298 3.55944C85.1911 0.220603 98 7.61578 101.339 20.077L102.305 19.8182L103.271 19.5594C99.646 6.0312 85.7404 -1.99712 72.2122 1.62758L72.471 2.59351ZM102.305 19.8182L101.339 20.077C102.402 24.044 102.375 28.0433 101.446 31.7622L102.416 32.0045L103.386 32.2468C104.395 28.2079 104.424 23.8635 103.271 19.5594L102.305 19.8182ZM102.416 32.0045L101.969 32.8991C107.608 35.7162 112.058 40.8388 113.817 47.4035L114.783 47.1447L115.749 46.8859C113.836 39.7448 108.992 34.1718 102.863 31.1099L102.416 32.0045ZM114.783 47.1447L113.817 47.4035C117.078 59.5723 109.856 72.0802 97.6869 75.3409L97.9457 76.3068L98.2046 77.2727C111.44 73.7262 119.296 60.1217 115.749 46.8859L114.783 47.1447ZM97.9457 76.3068L97.6869 75.3409C88.0716 77.9172 78.243 73.9489 72.9334 66.163L72.1072 66.7265L71.281 67.2899C77.0545 75.7559 87.743 80.0758 98.2045 77.2727L97.9457 76.3068ZM72.1072 66.7265L71.3502 66.073C68.6595 69.1903 65.0398 71.5622 60.7611 72.7087L61.0199 73.6746L61.2787 74.6405C65.9574 73.3869 69.9203 70.7905 72.8642 67.3799L72.1072 66.7265ZM61.0199 73.6746L60.7611 72.7087C53.1311 74.753 45.3565 72.3812 40.1537 67.1548L39.445 67.8603L38.7363 68.5658C44.4236 74.279 52.9291 76.8777 61.2787 74.6405L61.0199 73.6746ZM39.445 67.8603L38.735 67.156C36.1735 69.7382 32.9165 71.6984 29.1477 72.7082L29.4065 73.6741L29.6653 74.6401C33.7854 73.5361 37.3513 71.3908 40.1549 68.5646L39.445 67.8603ZM29.4065 73.6741L29.1477 72.7082C17.7952 75.7499 6.12683 69.0131 3.08474 57.6608L2.11882 57.9196L1.1529 58.1784C4.48088 70.5977 17.2459 77.9676 29.6653 74.6401L29.4065 73.6741ZM2.11882 57.9196L3.08475 57.6608C0.0428176 46.3081 6.77946 34.639 18.1319 31.5969L17.8731 30.631L17.6143 29.6651C5.19481 32.9931 -2.1749 45.7589 1.1529 58.1784L2.11882 57.9196ZM17.8731 30.631L18.1319 31.5969C19.8596 31.134 21.5939 30.8983 23.303 30.8699L23.2864 29.87L23.2698 28.8702C21.3988 28.9013 19.5019 29.1593 17.6143 29.6651L17.8731 30.631ZM23.2864 29.87L24.2572 30.11C26.0576 22.8254 31.6609 16.7204 39.4172 14.642L39.1584 13.6761L38.8995 12.7102C30.4117 14.9846 24.2837 21.6669 22.3156 29.6301L23.2864 29.87ZM39.1584 13.6761L39.4172 14.642C45.2755 13.0723 51.2163 14.1056 56.0157 17.0351L56.5367 16.1816L57.0577 15.328C51.8105 12.1251 45.3081 10.993 38.8995 12.7102L39.1584 13.6761ZM56.5367 16.1816L57.4494 16.5902C60.2245 10.3923 65.6622 5.4532 72.7298 3.55944L72.471 2.59351L72.2122 1.62758C64.5385 3.68373 58.6345 9.04929 55.624 15.7729L56.5367 16.1816Z" fill="#171717" mask="url(#path-1-outside-1_1222_20852)"/>
</svg>
