<svg width="89" height="59" viewBox="0 0 89 59" fill="none" xmlns="http://www.w3.org/2000/svg">
<mask id="path-1-outside-1_1222_20840" maskUnits="userSpaceOnUse" x="0" y="0" width="89" height="59" fill="black">
<rect fill="white" width="89" height="59"/>
<path d="M38.4375 1C45.8892 1.00001 52.3814 5.10325 55.7812 11.1729C58.0433 10.2775 60.5093 9.78613 63.0898 9.78613C72.7034 9.78615 80.722 16.6144 82.5605 25.6855C85.719 28.7482 87.6825 33.0362 87.6826 37.7832C87.6826 47.0898 80.1376 54.6348 70.8311 54.6348C67.8285 54.6347 65.0099 53.8482 62.5684 52.4717C59.038 55.6889 54.3441 57.6514 49.1914 57.6514C42.8475 57.6514 37.1979 54.678 33.5605 50.0488C30.1181 52.9115 25.6944 54.6347 20.8672 54.6348C9.89486 54.6348 1 45.7399 1 34.7676C1.00005 24.2664 9.14739 15.6682 19.4658 14.9492C21.9843 6.86699 29.5261 1 38.4375 1Z"/>
</mask>
<path d="M38.4375 1C45.8892 1.00001 52.3814 5.10325 55.7812 11.1729C58.0433 10.2775 60.5093 9.78613 63.0898 9.78613C72.7034 9.78615 80.722 16.6144 82.5605 25.6855C85.719 28.7482 87.6825 33.0362 87.6826 37.7832C87.6826 47.0898 80.1376 54.6348 70.8311 54.6348C67.8285 54.6347 65.0099 53.8482 62.5684 52.4717C59.038 55.6889 54.3441 57.6514 49.1914 57.6514C42.8475 57.6514 37.1979 54.678 33.5605 50.0488C30.1181 52.9115 25.6944 54.6347 20.8672 54.6348C9.89486 54.6348 1 45.7399 1 34.7676C1.00005 24.2664 9.14739 15.6682 19.4658 14.9492C21.9843 6.86699 29.5261 1 38.4375 1Z" fill="white"/>
<path d="M38.4375 1V0V1ZM55.7812 11.1729L54.9088 11.6616L55.3362 12.4245L56.1493 12.1027L55.7812 11.1729ZM63.0898 9.78613V8.78613V9.78613ZM82.5605 25.6855L81.5805 25.8842L81.642 26.1878L81.8644 26.4035L82.5605 25.6855ZM87.6826 37.7832H88.6826V37.7832L87.6826 37.7832ZM70.8311 54.6348L70.831 55.6348H70.8311V54.6348ZM62.5684 52.4717L63.0595 51.6006L62.4294 51.2454L61.8948 51.7326L62.5684 52.4717ZM49.1914 57.6514V58.6514V57.6514ZM33.5605 50.0488L34.3469 49.431L33.7117 48.6226L32.9212 49.2799L33.5605 50.0488ZM20.8672 54.6348V55.6348H20.8672L20.8672 54.6348ZM1 34.7676L0 34.7676V34.7676H1ZM19.4658 14.9492L19.5353 15.9468L20.2172 15.8993L20.4205 15.2467L19.4658 14.9492ZM38.4375 1V2C45.5126 2.00001 51.6785 5.89474 54.9088 11.6616L55.7812 11.1729L56.6537 10.6841C53.0842 4.31176 46.2657 1.39475e-05 38.4375 0V1ZM55.7812 11.1729L56.1493 12.1027C58.2959 11.253 60.6371 10.7861 63.0898 10.7861V9.78613V8.78613C60.3814 8.78613 57.7907 9.30202 55.4132 10.243L55.7812 11.1729ZM63.0898 9.78613V10.7861C72.2183 10.7861 79.8345 17.2701 81.5805 25.8842L82.5605 25.6855L83.5406 25.4869C81.6094 15.9588 73.1885 8.78615 63.0898 8.78613V9.78613ZM82.5605 25.6855L81.8644 26.4035C84.8367 29.2857 86.6825 33.3179 86.6826 37.7832L87.6826 37.7832L88.6826 37.7832C88.6825 32.7546 86.6012 28.2108 83.2567 24.9676L82.5605 25.6855ZM87.6826 37.7832H86.6826C86.6826 46.5375 79.5853 53.6348 70.8311 53.6348V54.6348V55.6348C80.6899 55.6348 88.6826 47.642 88.6826 37.7832H87.6826ZM70.8311 54.6348L70.8311 53.6348C68.0053 53.6347 65.3553 52.8949 63.0595 51.6006L62.5684 52.4717L62.0772 53.3428C64.6645 54.8014 67.6517 55.6347 70.831 55.6348L70.8311 54.6348ZM62.5684 52.4717L61.8948 51.7326C58.5413 54.7886 54.0852 56.6514 49.1914 56.6514V57.6514V58.6514C54.6031 58.6514 59.5347 56.5892 63.2419 53.2108L62.5684 52.4717ZM49.1914 57.6514V56.6514C43.1673 56.6514 37.8028 53.8293 34.3469 49.431L33.5605 50.0488L32.7742 50.6667C36.593 55.5268 42.5277 58.6514 49.1914 58.6514V57.6514ZM33.5605 50.0488L32.9212 49.2799C29.6514 51.999 25.452 53.6347 20.8672 53.6348L20.8672 54.6348L20.8672 55.6348C25.9368 55.6347 30.5848 53.824 34.1999 50.8177L33.5605 50.0488ZM20.8672 54.6348V53.6348C10.4471 53.6348 2 45.1876 2 34.7676H1H0C0 46.2922 9.34258 55.6348 20.8672 55.6348V54.6348ZM1 34.7676L2 34.7676C2.00005 24.7954 9.73726 16.6295 19.5353 15.9468L19.4658 14.9492L19.3963 13.9516C8.55752 14.7069 5.75185e-05 23.7374 0 34.7676L1 34.7676ZM19.4658 14.9492L20.4205 15.2467C22.8125 7.57049 29.9761 2 38.4375 2V1V0C29.0761 0 21.1561 6.1635 18.5111 14.6517L19.4658 14.9492Z" fill="#171717" mask="url(#path-1-outside-1_1222_20840)"/>
</svg>
