<svg xmlns="http://www.w3.org/2000/svg" xmlns:xlink="http://www.w3.org/1999/xlink" width="189.647" height="39.838" viewBox="0 0 189.647 39.838">
  <defs>
    <clipPath id="clip-path">
      <rect id="Rectangle_1" data-name="Rectangle 1" width="189.647" height="39.838" transform="translate(0 0)" fill="none"/>
    </clipPath>
  </defs>
  <g id="Group_2" data-name="Group 2" transform="translate(0 0)">
    <g id="Group_1" data-name="Group 1" clip-path="url(#clip-path)">
      <path id="Path_1" data-name="Path 1" d="M19.613,13.087a10.676,10.676,0,0,0-5.394-1.348,10.542,10.542,0,0,0-5.367,1.376,9.9,9.9,0,0,0-2.67,2.255V.46A.432.432,0,0,0,5.75.028H.432A.431.431,0,0,0,0,.46V38.843a.431.431,0,0,0,.432.432H5.75a.432.432,0,0,0,.432-.432V23.709a6.441,6.441,0,0,1,.787-3.2A5.608,5.608,0,0,1,9.16,18.314a6.436,6.436,0,0,1,3.2-.787,5.921,5.921,0,0,1,4.411,1.742,6.064,6.064,0,0,1,1.714,4.44V38.843a.432.432,0,0,0,.433.432h5.317a.431.431,0,0,0,.432-.432V22.36a11.081,11.081,0,0,0-1.348-5.536,9.744,9.744,0,0,0-3.71-3.737" fill="#2b2d37"/>
      <path id="Path_2" data-name="Path 2" d="M37,12.613c0-.009-.007-.017-.011-.026a.425.425,0,0,0-.083-.122l0,0a.453.453,0,0,0-.121-.082l-.036-.014a.426.426,0,0,0-.146-.029H31.285a.432.432,0,0,0-.432.432V38.843h0a.432.432,0,0,0,.031.155l.011.025a.4.4,0,0,0,.083.122l0,0a.431.431,0,0,0,.121.082c.012.006.024.01.036.015a.473.473,0,0,0,.145.029H36.6a.431.431,0,0,0,.432-.432V12.768h0A.431.431,0,0,0,37,12.613" fill="#2b2d37"/>
      <path id="Path_3" data-name="Path 3" d="M60.092,12.469a8.852,8.852,0,0,0-3.653-.73q-4.608,0-6.884,3.174c-.05.07-.093.147-.141.218v-2.4a.432.432,0,0,0-.432-.432H43.664a.432.432,0,0,0-.432.432v26.11a.432.432,0,0,0,.432.432h5.318a.432.432,0,0,0,.432-.432V24.271q0-3.484,1.686-5.114a6.463,6.463,0,0,1,6.351-1.293,4.13,4.13,0,0,1,1.321.819.436.436,0,0,0,.609,0l3.461-3.557a.438.438,0,0,0,.01-.6,8.555,8.555,0,0,0-2.76-2.054" fill="#2b2d37"/>
      <path id="Path_4" data-name="Path 4" d="M84,13.481a12.667,12.667,0,0,0-6.66-1.742,13.8,13.8,0,0,0-12.082,6.884,13.937,13.937,0,0,0-1.855,7.166,13.921,13.921,0,0,0,1.883,7.193A13.572,13.572,0,0,0,70.4,38.011a14.525,14.525,0,0,0,7.278,1.827,15.221,15.221,0,0,0,5.956-1.181,12.606,12.606,0,0,0,4.506-3.175.44.44,0,0,0-.016-.6L84.795,31.5a.43.43,0,0,0-.618.01,8.026,8.026,0,0,1-2.7,1.808,10,10,0,0,1-3.85.731,8.578,8.578,0,0,1-4.271-1.04,7.133,7.133,0,0,1-2.866-2.951,8.39,8.39,0,0,1-.73-1.967h19.76a.437.437,0,0,0,.427-.356q.119-.637.185-1.189a11.813,11.813,0,0,0,.084-1.377,14.194,14.194,0,0,0-1.658-6.912A12.414,12.414,0,0,0,84,13.481M70.432,21.264a6.914,6.914,0,0,1,2.7-2.838,8.026,8.026,0,0,1,4.1-1.011,7.444,7.444,0,0,1,3.794.9A6.039,6.039,0,0,1,83.414,20.9a8.641,8.641,0,0,1,.7,2.136H69.781a7.871,7.871,0,0,1,.651-1.771" fill="#2b2d37"/>
      <path id="Path_5" data-name="Path 5" d="M105.575,29.551,98.319,12.563a.432.432,0,0,0-.4-.263h-5.9a.432.432,0,0,0-.393.612l12.028,26.363h3.6l12.028-26.363a.433.433,0,0,0-.393-.612h-5.618a.432.432,0,0,0-.4.262Z" fill="#2b2d37"/>
      <path id="Path_6" data-name="Path 6" d="M141.387,27.7a6.646,6.646,0,0,1-1.433,4.58,5.255,5.255,0,0,1-4.131,1.6,5.912,5.912,0,0,1-3.007-.73,4.641,4.641,0,0,1-1.91-2.108,7.825,7.825,0,0,1-.646-3.344V12.733a.433.433,0,0,0-.432-.432H124.51a.433.433,0,0,0-.432.432V27.98a12.413,12.413,0,0,0,1.489,6.154,10.757,10.757,0,0,0,4.159,4.187,12.121,12.121,0,0,0,6.1,1.517,12.273,12.273,0,0,0,6.126-1.489,10.615,10.615,0,0,0,4.13-4.159,12.534,12.534,0,0,0,1.49-6.21V12.733a.433.433,0,0,0-.432-.432h-5.318a.432.432,0,0,0-.432.432Z" fill="#2b2d37"/>
      <path id="Path_7" data-name="Path 7" d="M177.045,18.258a12.414,12.414,0,0,0-4.552-4.777,12.666,12.666,0,0,0-6.66-1.742,13.8,13.8,0,0,0-12.082,6.884,13.937,13.937,0,0,0-1.855,7.166,13.921,13.921,0,0,0,1.883,7.193,13.572,13.572,0,0,0,5.114,5.029,14.525,14.525,0,0,0,7.278,1.827,15.221,15.221,0,0,0,5.956-1.181,12.606,12.606,0,0,0,4.506-3.175.44.44,0,0,0-.016-.6L173.284,31.5a.43.43,0,0,0-.618.01,8.026,8.026,0,0,1-2.7,1.808,10,10,0,0,1-3.85.731,8.578,8.578,0,0,1-4.271-1.04,7.133,7.133,0,0,1-2.866-2.951,8.39,8.39,0,0,1-.73-1.967h19.76a.437.437,0,0,0,.427-.356q.118-.637.185-1.189a11.815,11.815,0,0,0,.084-1.377,14.194,14.194,0,0,0-1.658-6.912m-18.124,3.006a6.914,6.914,0,0,1,2.7-2.838,8.026,8.026,0,0,1,4.1-1.011,7.444,7.444,0,0,1,3.794.9A6.039,6.039,0,0,1,171.9,20.9a8.641,8.641,0,0,1,.7,2.136H158.27a7.87,7.87,0,0,1,.651-1.771" fill="#2b2d37"/>
      <path id="Path_8" data-name="Path 8" d="M37.317,3.4A3.373,3.373,0,1,1,33.944.028,3.373,3.373,0,0,1,37.317,3.4" fill="#2b2d37"/>
      <path id="Path_9" data-name="Path 9" d="M181.476,16.583a.206.206,0,0,1-.4,0,10.206,10.206,0,0,0-1.143-3.174,9.645,9.645,0,0,0-3.752-3.728,10.219,10.219,0,0,0-3.11-1.114.2.2,0,0,1,0-.387,10.268,10.268,0,0,0,3.109-1.115,9.633,9.633,0,0,0,3.752-3.731A10.206,10.206,0,0,0,181.074.16a.206.206,0,0,1,.4,0,10.206,10.206,0,0,0,1.143,3.174,9.632,9.632,0,0,0,3.749,3.731A10.276,10.276,0,0,0,189.48,8.18a.2.2,0,0,1,0,.387,10.237,10.237,0,0,0-3.113,1.114,9.644,9.644,0,0,0-3.749,3.728,10.206,10.206,0,0,0-1.143,3.174" fill="#ea0954"/>
    </g>
  </g>
</svg>
